<mxfile host="Electron" modified="2023-06-09T17:59:28.019Z" agent="Mozilla/5.0 (Windows NT 10.0; Win64; x64) AppleWebKit/537.36 (KHTML, like Gecko) draw.io/21.2.8 Chrome/112.0.5615.165 Electron/24.2.0 Safari/537.36" etag="CfEEj1mA5gIkmrauD3nd" version="21.2.8" type="device">
  <diagram id="C5RBs43oDa-KdzZeNtuy" name="Page-1">
    <mxGraphModel dx="2117" dy="1798" grid="1" gridSize="10" guides="1" tooltips="1" connect="1" arrows="1" fold="1" page="1" pageScale="1" pageWidth="827" pageHeight="1169" math="0" shadow="0">
      <root>
        <mxCell id="WIyWlLk6GJQsqaUBKTNV-0" />
        <mxCell id="WIyWlLk6GJQsqaUBKTNV-1" parent="WIyWlLk6GJQsqaUBKTNV-0" />
        <mxCell id="CTua8EQ_ATJNkQlO_y4e-13" style="edgeStyle=orthogonalEdgeStyle;rounded=0;orthogonalLoop=1;jettySize=auto;html=1;entryX=0.5;entryY=0;entryDx=0;entryDy=0;" edge="1" parent="WIyWlLk6GJQsqaUBKTNV-1" source="CTua8EQ_ATJNkQlO_y4e-2" target="CTua8EQ_ATJNkQlO_y4e-4">
          <mxGeometry relative="1" as="geometry" />
        </mxCell>
        <mxCell id="CTua8EQ_ATJNkQlO_y4e-2" value="&lt;font style=&quot;font-size: 14px;&quot; face=&quot;Times New Roman&quot;&gt;Начало&lt;/font&gt;" style="ellipse;whiteSpace=wrap;html=1;" vertex="1" parent="WIyWlLk6GJQsqaUBKTNV-1">
          <mxGeometry x="-800" y="-600" width="200" height="100" as="geometry" />
        </mxCell>
        <mxCell id="CTua8EQ_ATJNkQlO_y4e-15" style="edgeStyle=orthogonalEdgeStyle;rounded=0;orthogonalLoop=1;jettySize=auto;html=1;entryX=0.5;entryY=0;entryDx=0;entryDy=0;" edge="1" parent="WIyWlLk6GJQsqaUBKTNV-1" source="CTua8EQ_ATJNkQlO_y4e-4" target="CTua8EQ_ATJNkQlO_y4e-8">
          <mxGeometry relative="1" as="geometry" />
        </mxCell>
        <mxCell id="CTua8EQ_ATJNkQlO_y4e-4" value="&lt;font style=&quot;font-size: 14px;&quot; face=&quot;Times New Roman&quot;&gt;Подготовка изображения для дальнейшего анализа&lt;/font&gt;" style="rounded=0;whiteSpace=wrap;html=1;" vertex="1" parent="WIyWlLk6GJQsqaUBKTNV-1">
          <mxGeometry x="-800" y="-456" width="200" height="100" as="geometry" />
        </mxCell>
        <mxCell id="CTua8EQ_ATJNkQlO_y4e-16" style="edgeStyle=orthogonalEdgeStyle;rounded=0;orthogonalLoop=1;jettySize=auto;html=1;entryX=0;entryY=0.5;entryDx=0;entryDy=0;" edge="1" parent="WIyWlLk6GJQsqaUBKTNV-1" source="CTua8EQ_ATJNkQlO_y4e-8" target="CTua8EQ_ATJNkQlO_y4e-10">
          <mxGeometry relative="1" as="geometry">
            <mxPoint x="-570" y="-410" as="targetPoint" />
            <Array as="points">
              <mxPoint x="-569" y="-256" />
              <mxPoint x="-569" y="-406" />
            </Array>
          </mxGeometry>
        </mxCell>
        <mxCell id="CTua8EQ_ATJNkQlO_y4e-8" value="&lt;font style=&quot;font-size: 14px;&quot; face=&quot;Times New Roman&quot;&gt;Поиск нотных станов на подготовленном изображении&lt;/font&gt;" style="rounded=0;whiteSpace=wrap;html=1;" vertex="1" parent="WIyWlLk6GJQsqaUBKTNV-1">
          <mxGeometry x="-800" y="-306" width="200" height="100" as="geometry" />
        </mxCell>
        <mxCell id="CTua8EQ_ATJNkQlO_y4e-17" style="edgeStyle=orthogonalEdgeStyle;rounded=0;orthogonalLoop=1;jettySize=auto;html=1;entryX=0.5;entryY=0;entryDx=0;entryDy=0;" edge="1" parent="WIyWlLk6GJQsqaUBKTNV-1" source="CTua8EQ_ATJNkQlO_y4e-10" target="CTua8EQ_ATJNkQlO_y4e-12">
          <mxGeometry relative="1" as="geometry" />
        </mxCell>
        <mxCell id="CTua8EQ_ATJNkQlO_y4e-10" value="&lt;font style=&quot;font-size: 14px;&quot; face=&quot;Times New Roman&quot;&gt;Поиск на изображении объектов, похожих на ноту&lt;/font&gt;" style="rounded=0;whiteSpace=wrap;html=1;" vertex="1" parent="WIyWlLk6GJQsqaUBKTNV-1">
          <mxGeometry x="-540" y="-456" width="200" height="100" as="geometry" />
        </mxCell>
        <mxCell id="CTua8EQ_ATJNkQlO_y4e-25" style="edgeStyle=orthogonalEdgeStyle;rounded=0;orthogonalLoop=1;jettySize=auto;html=1;exitX=1;exitY=0.5;exitDx=0;exitDy=0;entryX=0;entryY=0.5;entryDx=0;entryDy=0;" edge="1" parent="WIyWlLk6GJQsqaUBKTNV-1" source="CTua8EQ_ATJNkQlO_y4e-12" target="CTua8EQ_ATJNkQlO_y4e-22">
          <mxGeometry relative="1" as="geometry">
            <mxPoint x="-310" y="-410" as="targetPoint" />
            <Array as="points">
              <mxPoint x="-309" y="-256" />
              <mxPoint x="-309" y="-406" />
            </Array>
          </mxGeometry>
        </mxCell>
        <mxCell id="CTua8EQ_ATJNkQlO_y4e-12" value="&lt;font style=&quot;font-size: 14px;&quot; face=&quot;Times New Roman&quot;&gt;Поиск среди найденных объектов нот, находящихся на нотных станах и определение их высот, относительно положения на нотных станах&lt;/font&gt;" style="rounded=0;whiteSpace=wrap;html=1;" vertex="1" parent="WIyWlLk6GJQsqaUBKTNV-1">
          <mxGeometry x="-540" y="-306" width="200" height="100" as="geometry" />
        </mxCell>
        <mxCell id="CTua8EQ_ATJNkQlO_y4e-22" value="&lt;font style=&quot;font-size: 14px;&quot; face=&quot;Times New Roman&quot;&gt;Создание из найденных нот MIDI файла для прослушивания и выявления неточностей работы.&lt;/font&gt;" style="rounded=0;whiteSpace=wrap;html=1;" vertex="1" parent="WIyWlLk6GJQsqaUBKTNV-1">
          <mxGeometry x="-280" y="-456" width="200" height="100" as="geometry" />
        </mxCell>
        <mxCell id="CTua8EQ_ATJNkQlO_y4e-28" style="edgeStyle=orthogonalEdgeStyle;rounded=0;orthogonalLoop=1;jettySize=auto;html=1;entryX=0.5;entryY=0;entryDx=0;entryDy=0;" edge="1" parent="WIyWlLk6GJQsqaUBKTNV-1">
          <mxGeometry relative="1" as="geometry">
            <mxPoint x="-180.5" y="-356" as="sourcePoint" />
            <mxPoint x="-180.5" y="-306" as="targetPoint" />
            <Array as="points">
              <mxPoint x="-180" y="-320" />
              <mxPoint x="-180" y="-320" />
            </Array>
          </mxGeometry>
        </mxCell>
        <mxCell id="CTua8EQ_ATJNkQlO_y4e-29" value="&lt;font style=&quot;font-size: 14px;&quot; face=&quot;Times New Roman&quot;&gt;Конец&lt;/font&gt;" style="ellipse;whiteSpace=wrap;html=1;" vertex="1" parent="WIyWlLk6GJQsqaUBKTNV-1">
          <mxGeometry x="-280" y="-306" width="200" height="100" as="geometry" />
        </mxCell>
      </root>
    </mxGraphModel>
  </diagram>
</mxfile>
